# xmcd
#
# Track frame offsets:
#	150
#	17949
#	35185
#	52784
#	77680
#	96105
#	112291
#	125822
#	145312
#	167936
#
# Disc length: 2641 seconds
# Revision: 0
# Processed by: cddbd v1.5.2PL0 Copyright (c) Steve Scherf et al.
# Submitted via: dBpowerAMP V12.0
#
DISCID=900a4f0a
DTITLE=Billy Failing - Calling My Trouble By Name
DYEAR=2017
DGENRE=Country
TTITLE0=So Many Miles
TTITLE1=Six Feet Under
TTITLE2=A Pick and Three Whole Dollars
TTITLE3=My Reflection
TTITLE4=Watch It Fly
TTITLE5=All Alone
TTITLE6=Wrong Road Again
TTITLE7=Loneliness
TTITLE8=Weathered and Worn
TTITLE9=Somewhere Down The Line
EXTD=
EXTT0=
EXTT1=
EXTT2=
EXTT3=
EXTT4=
EXTT5=
EXTT6=
EXTT7=
EXTT8=
EXTT9=
PLAYORDER=
